<?xml version="1.0" encoding="UTF-8" standalone="no"?>
<!DOCTYPE svg PUBLIC "-//W3C//DTD SVG 1.1//EN"
 "http://www.w3.org/Graphics/SVG/1.1/DTD/svg11.dtd">
<!-- Generated by graphviz version 2.43.0 (0)
 -->
<!-- Title: ClimateDecisionToolWorkflow Pages: 1 -->
<svg width="834pt" height="404pt"
 viewBox="0.00 0.00 834.00 404.00" xmlns="http://www.w3.org/2000/svg" xmlns:xlink="http://www.w3.org/1999/xlink">
<g id="graph0" class="graph" transform="scale(1 1) rotate(0) translate(4 400)">
<title>ClimateDecisionToolWorkflow</title>
<polygon fill="#f9f9f9" stroke="transparent" points="-4,4 -4,-400 830,-400 830,4 -4,4"/>
<!-- data ingestion -->
<g id="node1" class="node">
<title>data ingestion</title>
<path fill="#e8f5e9" stroke="black" d="M451,-396C451,-396 365,-396 365,-396 359,-396 353,-390 353,-384 353,-384 353,-372 353,-372 353,-366 359,-360 365,-360 365,-360 451,-360 451,-360 457,-360 463,-366 463,-372 463,-372 463,-384 463,-384 463,-390 457,-396 451,-396"/>
<text text-anchor="middle" x="408" y="-381" font-family="Lucida Grande" font-size="10.00" fill="#2b2b2b">data ingestion</text>
<text text-anchor="middle" x="408" y="-370" font-family="Lucida Grande" font-size="10.00" fill="#2b2b2b">(batch &amp; real&#45;time)</text>
</g>
<!-- internal data -->
<g id="node2" class="node">
<title>internal data</title>
<path fill="#e8f5e9" stroke="black" d="M262,-324C262,-324 12,-324 12,-324 6,-324 0,-318 0,-312 0,-312 0,-300 0,-300 0,-294 6,-288 12,-288 12,-288 262,-288 262,-288 268,-288 274,-294 274,-300 274,-300 274,-312 274,-312 274,-318 268,-324 262,-324"/>
<text text-anchor="middle" x="137" y="-309" font-family="Lucida Grande" font-size="10.00" fill="#2b2b2b">internal data</text>
<text text-anchor="middle" x="137" y="-298" font-family="Lucida Grande" font-size="10.00" fill="#2b2b2b">(finiance, invoice systems, HR, operations, esg data)</text>
</g>
<!-- data ingestion&#45;&gt;internal data -->
<g id="edge1" class="edge">
<title>data ingestion&#45;&gt;internal data</title>
<path fill="none" stroke="#bbbbbb" d="M352.83,-362.75C313.14,-352.5 259.05,-338.53 214.95,-327.14"/>
<polygon fill="#bbbbbb" stroke="#bbbbbb" points="215.76,-323.01 203.09,-324.07 213.66,-331.14 215.76,-323.01"/>
</g>
<!-- external data -->
<g id="node3" class="node">
<title>external data</title>
<path fill="#e8f5e9" stroke="black" d="M512,-324C512,-324 304,-324 304,-324 298,-324 292,-318 292,-312 292,-312 292,-300 292,-300 292,-294 298,-288 304,-288 304,-288 512,-288 512,-288 518,-288 524,-294 524,-300 524,-300 524,-312 524,-312 524,-318 518,-324 512,-324"/>
<text text-anchor="middle" x="408" y="-309" font-family="Lucida Grande" font-size="10.00" fill="#2b2b2b">external data</text>
<text text-anchor="middle" x="408" y="-298" font-family="Lucida Grande" font-size="10.00" fill="#2b2b2b">(carbon pricing, taxes, regulations, libraries)</text>
</g>
<!-- data ingestion&#45;&gt;external data -->
<g id="edge2" class="edge">
<title>data ingestion&#45;&gt;external data</title>
<path fill="none" stroke="#bbbbbb" d="M408,-359.7C408,-352.58 408,-344.13 408,-336.11"/>
<polygon fill="#bbbbbb" stroke="#bbbbbb" points="412.2,-336.1 408,-324.1 403.8,-336.1 412.2,-336.1"/>
</g>
<!-- nlp module -->
<g id="node4" class="node">
<title>nlp module</title>
<path fill="#e8f5e9" stroke="black" d="M814,-324C814,-324 554,-324 554,-324 548,-324 542,-318 542,-312 542,-312 542,-300 542,-300 542,-294 548,-288 554,-288 554,-288 814,-288 814,-288 820,-288 826,-294 826,-300 826,-300 826,-312 826,-312 826,-318 820,-324 814,-324"/>
<text text-anchor="middle" x="684" y="-309" font-family="Lucida Grande" font-size="10.00" fill="#2b2b2b">nlp module</text>
<text text-anchor="middle" x="684" y="-298" font-family="Lucida Grande" font-size="10.00" fill="#2b2b2b">(benchmarking &amp; gathering data from various sources)</text>
</g>
<!-- data ingestion&#45;&gt;nlp module -->
<g id="edge3" class="edge">
<title>data ingestion&#45;&gt;nlp module</title>
<path fill="none" stroke="#bbbbbb" d="M463.19,-363C503.84,-352.69 559.7,-338.52 605.07,-327.02"/>
<polygon fill="#bbbbbb" stroke="#bbbbbb" points="606.36,-331.02 616.96,-324 604.3,-322.88 606.36,-331.02"/>
</g>
<!-- environmental database -->
<g id="node5" class="node">
<title>environmental database</title>
<path fill="#ffecb3" stroke="black" d="M464,-252C464,-252 352,-252 352,-252 346,-252 340,-246 340,-240 340,-240 340,-228 340,-228 340,-222 346,-216 352,-216 352,-216 464,-216 464,-216 470,-216 476,-222 476,-228 476,-228 476,-240 476,-240 476,-246 470,-252 464,-252"/>
<text text-anchor="middle" x="408" y="-237" font-family="Lucida Grande" font-size="10.00" fill="#2b2b2b">environmental database</text>
<text text-anchor="middle" x="408" y="-226" font-family="Lucida Grande" font-size="10.00" fill="#2b2b2b">(central repository)</text>
</g>
<!-- internal data&#45;&gt;environmental database -->
<g id="edge4" class="edge">
<title>internal data&#45;&gt;environmental database</title>
<path fill="none" stroke="#bbbbbb" d="M202.95,-287.97C241.31,-278.06 289.87,-265.51 330.1,-255.12"/>
<polygon fill="#bbbbbb" stroke="#bbbbbb" points="331.19,-259.18 341.76,-252.11 329.09,-251.05 331.19,-259.18"/>
</g>
<!-- external data&#45;&gt;environmental database -->
<g id="edge5" class="edge">
<title>external data&#45;&gt;environmental database</title>
<path fill="none" stroke="#bbbbbb" d="M408,-287.7C408,-280.58 408,-272.13 408,-264.11"/>
<polygon fill="#bbbbbb" stroke="#bbbbbb" points="412.2,-264.1 408,-252.1 403.8,-264.1 412.2,-264.1"/>
</g>
<!-- nlp module&#45;&gt;environmental database -->
<g id="edge6" class="edge">
<title>nlp module&#45;&gt;environmental database</title>
<path fill="none" stroke="#bbbbbb" d="M616.84,-287.97C577.77,-278.06 528.31,-265.51 487.33,-255.12"/>
<polygon fill="#bbbbbb" stroke="#bbbbbb" points="488.13,-250.99 475.47,-252.11 486.06,-259.13 488.13,-250.99"/>
</g>
<!-- lca engine -->
<g id="node6" class="node">
<title>lca engine</title>
<path fill="#bbdefb" stroke="black" d="M261,-180C261,-180 199,-180 199,-180 193,-180 187,-174 187,-168 187,-168 187,-156 187,-156 187,-150 193,-144 199,-144 199,-144 261,-144 261,-144 267,-144 273,-150 273,-156 273,-156 273,-168 273,-168 273,-174 267,-180 261,-180"/>
<text text-anchor="middle" x="230" y="-165" font-family="Lucida Grande" font-size="10.00" fill="#2b2b2b">lca engine</text>
<text text-anchor="middle" x="230" y="-154" font-family="Lucida Grande" font-size="10.00" fill="#2b2b2b">(scope 1, 2, 3)</text>
</g>
<!-- environmental database&#45;&gt;lca engine -->
<g id="edge7" class="edge">
<title>environmental database&#45;&gt;lca engine</title>
<path fill="none" stroke="#bbbbbb" d="M364.46,-215.88C340.36,-206.4 310.18,-194.53 284.53,-184.44"/>
<polygon fill="#bbbbbb" stroke="#bbbbbb" points="285.8,-180.43 273.09,-179.95 282.72,-188.25 285.8,-180.43"/>
</g>
<!-- climate risk models -->
<g id="node7" class="node">
<title>climate risk models</title>
<path fill="#bbdefb" stroke="black" d="M512.5,-180C512.5,-180 303.5,-180 303.5,-180 297.5,-180 291.5,-174 291.5,-168 291.5,-168 291.5,-156 291.5,-156 291.5,-150 297.5,-144 303.5,-144 303.5,-144 512.5,-144 512.5,-144 518.5,-144 524.5,-150 524.5,-156 524.5,-156 524.5,-168 524.5,-168 524.5,-174 518.5,-180 512.5,-180"/>
<text text-anchor="middle" x="408" y="-165" font-family="Lucida Grande" font-size="10.00" fill="#2b2b2b">climate risk models</text>
<text text-anchor="middle" x="408" y="-154" font-family="Lucida Grande" font-size="10.00" fill="#2b2b2b">(monte carlo simulations, scenario analysis)</text>
</g>
<!-- environmental database&#45;&gt;climate risk models -->
<g id="edge8" class="edge">
<title>environmental database&#45;&gt;climate risk models</title>
<path fill="none" stroke="#bbbbbb" d="M408,-215.7C408,-208.58 408,-200.13 408,-192.11"/>
<polygon fill="#bbbbbb" stroke="#bbbbbb" points="412.2,-192.1 408,-180.1 403.8,-192.1 412.2,-192.1"/>
</g>
<!-- task generation -->
<g id="node8" class="node">
<title>task generation</title>
<path fill="#bbdefb" stroke="black" d="M623.5,-180C623.5,-180 554.5,-180 554.5,-180 548.5,-180 542.5,-174 542.5,-168 542.5,-168 542.5,-156 542.5,-156 542.5,-150 548.5,-144 554.5,-144 554.5,-144 623.5,-144 623.5,-144 629.5,-144 635.5,-150 635.5,-156 635.5,-156 635.5,-168 635.5,-168 635.5,-174 629.5,-180 623.5,-180"/>
<text text-anchor="middle" x="589" y="-165" font-family="Lucida Grande" font-size="10.00" fill="#2b2b2b">task generation</text>
<text text-anchor="middle" x="589" y="-154" font-family="Lucida Grande" font-size="10.00" fill="#2b2b2b">(kpi tracker)</text>
</g>
<!-- environmental database&#45;&gt;task generation -->
<g id="edge9" class="edge">
<title>environmental database&#45;&gt;task generation</title>
<path fill="none" stroke="#bbbbbb" d="M452.28,-215.88C476.8,-206.39 507.52,-194.51 533.62,-184.42"/>
<polygon fill="#bbbbbb" stroke="#bbbbbb" points="535.19,-188.31 544.87,-180.07 532.16,-180.48 535.19,-188.31"/>
</g>
<!-- dashboards -->
<g id="node9" class="node">
<title>dashboards</title>
<path fill="#ffe0b2" stroke="black" d="M467,-108C467,-108 349,-108 349,-108 343,-108 337,-102 337,-96 337,-96 337,-84 337,-84 337,-78 343,-72 349,-72 349,-72 467,-72 467,-72 473,-72 479,-78 479,-84 479,-84 479,-96 479,-96 479,-102 473,-108 467,-108"/>
<text text-anchor="middle" x="408" y="-93" font-family="Lucida Grande" font-size="10.00" fill="#2b2b2b">dashboards</text>
<text text-anchor="middle" x="408" y="-82" font-family="Lucida Grande" font-size="10.00" fill="#2b2b2b">(real&#45;time kpi, heatmaps)</text>
</g>
<!-- lca engine&#45;&gt;dashboards -->
<g id="edge10" class="edge">
<title>lca engine&#45;&gt;dashboards</title>
<path fill="none" stroke="#bbbbbb" d="M273.09,-144.05C297.18,-134.58 327.45,-122.68 353.21,-112.55"/>
<polygon fill="#bbbbbb" stroke="#bbbbbb" points="355.06,-116.33 364.69,-108.03 351.99,-108.51 355.06,-116.33"/>
</g>
<!-- climate risk models&#45;&gt;dashboards -->
<g id="edge11" class="edge">
<title>climate risk models&#45;&gt;dashboards</title>
<path fill="none" stroke="#bbbbbb" d="M408,-143.7C408,-136.58 408,-128.13 408,-120.11"/>
<polygon fill="#bbbbbb" stroke="#bbbbbb" points="412.2,-120.1 408,-108.1 403.8,-120.1 412.2,-120.1"/>
</g>
<!-- task generation&#45;&gt;dashboards -->
<g id="edge12" class="edge">
<title>task generation&#45;&gt;dashboards</title>
<path fill="none" stroke="#bbbbbb" d="M544.72,-143.88C520.2,-134.39 489.48,-122.51 463.38,-112.42"/>
<polygon fill="#bbbbbb" stroke="#bbbbbb" points="464.84,-108.48 452.13,-108.07 461.81,-116.31 464.84,-108.48"/>
</g>
<!-- html reports -->
<g id="node10" class="node">
<title>html reports</title>
<path fill="#ffe0b2" stroke="black" d="M394.5,-36C394.5,-36 261.5,-36 261.5,-36 255.5,-36 249.5,-30 249.5,-24 249.5,-24 249.5,-12 249.5,-12 249.5,-6 255.5,0 261.5,0 261.5,0 394.5,0 394.5,0 400.5,0 406.5,-6 406.5,-12 406.5,-12 406.5,-24 406.5,-24 406.5,-30 400.5,-36 394.5,-36"/>
<text text-anchor="middle" x="328" y="-21" font-family="Lucida Grande" font-size="10.00" fill="#2b2b2b">html reports</text>
<text text-anchor="middle" x="328" y="-10" font-family="Lucida Grande" font-size="10.00" fill="#2b2b2b">(auto&#45;generated summaries)</text>
</g>
<!-- dashboards&#45;&gt;html reports -->
<g id="edge13" class="edge">
<title>dashboards&#45;&gt;html reports</title>
<path fill="none" stroke="#bbbbbb" d="M388.22,-71.7C378.73,-63.39 367.17,-53.28 356.73,-44.14"/>
<polygon fill="#bbbbbb" stroke="#bbbbbb" points="359.34,-40.85 347.55,-36.1 353.81,-47.17 359.34,-40.85"/>
</g>
<!-- api endpoints -->
<g id="node11" class="node">
<title>api endpoints</title>
<path fill="#ffe0b2" stroke="black" d="M541,-36C541,-36 437,-36 437,-36 431,-36 425,-30 425,-24 425,-24 425,-12 425,-12 425,-6 431,0 437,0 437,0 541,0 541,0 547,0 553,-6 553,-12 553,-12 553,-24 553,-24 553,-30 547,-36 541,-36"/>
<text text-anchor="middle" x="489" y="-21" font-family="Lucida Grande" font-size="10.00" fill="#2b2b2b">api endpoints</text>
<text text-anchor="middle" x="489" y="-10" font-family="Lucida Grande" font-size="10.00" fill="#2b2b2b">(integration with tools)</text>
</g>
<!-- dashboards&#45;&gt;api endpoints -->
<g id="edge14" class="edge">
<title>dashboards&#45;&gt;api endpoints</title>
<path fill="none" stroke="#bbbbbb" d="M428.02,-71.7C437.64,-63.39 449.34,-53.28 459.91,-44.14"/>
<polygon fill="#bbbbbb" stroke="#bbbbbb" points="462.87,-47.13 469.21,-36.1 457.38,-40.77 462.87,-47.13"/>
</g>
</g>
</svg>
